<svg width="56" height="48" viewBox="0 0 56 48" fill="none" xmlns="http://www.w3.org/2000/svg">
  <path fill-rule="evenodd" clip-rule="evenodd" d="M19.3332 8.27777L6.64868 20.9623H54.8113L54.1019 20.0439L19.3332 8.27777Z" fill="#E79693"/>
  <path d="M1 20.9623H54.8113V45C54.8113 46.1046 53.9159 47 52.8113 47H3C1.89543 47 1 46.1046 1 45V20.9623Z" fill="#F56A76"/>
  <ellipse cx="33.1132" cy="16.6226" rx="2.60377" ry="1.73585" transform="rotate(-13 33.1132 16.6226)" fill="#C47883"/>
  <circle cx="30.5094" cy="27.9056" r="0.867925" fill="#FBBBC0"/>
  <circle cx="37.4529" cy="24.434" r="0.867925" fill="#FBBBC0"/>
  <circle cx="51.3396" cy="27.0377" r="0.867925" fill="#FBBBC0"/>
  <circle cx="50.4717" cy="42.6604" r="0.867925" fill="#FBBBC0"/>
  <path d="M5.3396 31.6415C5.3396 30.5369 6.23503 29.6415 7.3396 29.6415H54.8113V33.9811H5.3396V31.6415Z" fill="white"/>
  <path d="M5.3396 38.9246C5.3396 40.0291 6.23503 40.9246 7.3396 40.9246H54.8113V33.9812H5.3396V38.9246Z" fill="#E89793"/>
  <path d="M14.6881 11.6483L14.3289 11.9962C14.5211 12.1946 14.8376 12.1996 15.036 12.0074L14.6881 11.6483ZM15.1517 11.1992L14.8814 10.7785C14.8535 10.7964 14.8275 10.817 14.8038 10.8401L15.1517 11.1992ZM13.9922 10.9301L13.6443 10.571C13.5491 10.6633 13.4944 10.7896 13.4923 10.9222C13.4902 11.0548 13.5408 11.1828 13.6331 11.278L13.9922 10.9301ZM14.4897 10.4481L14.8377 10.8072V10.8072L14.4897 10.4481ZM14.5592 10.3919L14.8377 10.8072V10.8072L14.5592 10.3919ZM17.9784 10.3433L17.7672 10.7965C17.7828 10.8037 17.7988 10.8102 17.815 10.8158L17.9784 10.3433ZM54.2653 22.8898L54.7379 23.0531C54.8281 22.7922 54.6897 22.5074 54.4287 22.4172L54.2653 22.8898ZM53.9385 23.8349L53.7752 24.3074C53.9005 24.3507 54.0379 24.3425 54.1572 24.2845C54.2764 24.2265 54.3678 24.1236 54.4111 23.9982L53.9385 23.8349ZM17.6267 11.2798L17.1542 11.1164C17.1109 11.2417 17.1191 11.3791 17.1771 11.4984C17.235 11.6176 17.338 11.709 17.4633 11.7523L17.6267 11.2798ZM17.7901 10.8072L18.2627 10.9706C18.3495 10.7195 18.2248 10.4443 17.9787 10.3441C17.7326 10.2439 17.4511 10.3537 17.3378 10.5941L17.7901 10.8072ZM17.577 11.2595L17.3638 11.7118C17.4838 11.7683 17.6213 11.7749 17.7461 11.73C17.8708 11.6852 17.9727 11.5926 18.0292 11.4727L17.577 11.2595ZM2.19435 20.268L1.84737 19.908L1.84737 19.908L2.19435 20.268ZM9.08732 13.2522L9.44684 13.5997C9.539 13.5044 9.58951 13.3763 9.58725 13.2437C9.58499 13.1111 9.53015 12.9849 9.4348 12.8927L9.08732 13.2522ZM2.18487 20.2772L1.81572 20.6144C1.90672 20.714 2.03413 20.7726 2.16898 20.7769C2.30384 20.7812 2.43471 20.7308 2.53185 20.6372L2.18487 20.2772ZM2.18475 20.277L2.5539 19.9398C2.46443 19.8419 2.33972 19.7835 2.20721 19.7775C2.07471 19.7716 1.94526 19.8185 1.84737 19.908L2.18475 20.277ZM2.05639 20.4062L1.68352 20.0731L1.68351 20.0731L2.05639 20.4062ZM2.03321 20.4304L1.68351 20.0731C1.67543 20.081 1.66762 20.0892 1.6601 20.0976L2.03321 20.4304ZM53.7382 20.3869L53.3951 20.0232C53.1942 20.2127 53.185 20.5292 53.3745 20.73L53.7382 20.3869ZM54.4656 19.7008L54.8293 19.3577C54.7384 19.2612 54.6128 19.2048 54.4802 19.201C54.3477 19.1971 54.219 19.2461 54.1225 19.337L54.4656 19.7008ZM1.28038 19.7722L1.65457 20.1038C1.65896 20.0989 1.66326 20.0938 1.66745 20.0887L1.28038 19.7722ZM1.30582 19.7434L1.66779 20.0883L1.66779 20.0883L1.30582 19.7434ZM1.31902 19.7295L1.68098 20.0745L1.68098 20.0745L1.31902 19.7295ZM1.33166 19.7167L1.6812 20.0742C1.6878 20.0678 1.69421 20.0612 1.70044 20.0544L1.33166 19.7167ZM1.5049 19.5437L1.8432 19.912L1.85195 19.9036L1.5049 19.5437ZM8.36827 12.5573L8.71574 12.1978C8.51718 12.0059 8.20065 12.0112 8.00874 12.2098L8.36827 12.5573ZM10.8375 11.4385L10.4905 11.7985C10.6894 11.9902 11.0059 11.9844 11.1975 11.7855L10.8375 11.4385ZM11.5098 10.741L11.8698 11.088C12.0614 10.8893 12.0557 10.5728 11.857 10.3812L11.5098 10.741ZM10.1175 10.7446L9.75752 10.3976C9.66549 10.4931 9.61516 10.6212 9.6176 10.7538C9.62004 10.8864 9.67506 11.0126 9.77054 11.1046L10.1175 10.7446ZM10.7901 10.0468L11.1372 9.68693C11.0417 9.59485 10.9136 9.54447 10.781 9.54689C10.6484 9.54931 10.5221 9.60432 10.4301 9.69982L10.7901 10.0468ZM15.036 12.0074L15.4996 11.5583L14.8038 10.8401L14.3401 11.2892L15.036 12.0074ZM13.6331 11.278L14.3289 11.9962L15.0472 11.3004L14.3513 10.5822L13.6331 11.278ZM14.1418 10.089L13.6443 10.571L14.3401 11.2892L14.8377 10.8072L14.1418 10.089ZM14.2808 9.97657C14.2312 10.0098 14.1847 10.0474 14.1418 10.089L14.8377 10.8072V10.8072L14.2808 9.97657ZM16.1837 9.39392C15.4954 9.39392 14.8535 9.59269 14.2808 9.97657L14.8377 10.8072C15.2487 10.5317 15.6974 10.3939 16.1837 10.3939V9.39392ZM18.1897 9.8901C17.5224 9.57905 16.8488 9.39392 16.1837 9.39392V10.3939C16.6636 10.3939 17.1914 10.5281 17.7672 10.7965L18.1897 9.8901ZM54.4287 22.4172L18.1418 9.87073L17.815 10.8158L54.1019 23.3623L54.4287 22.4172ZM54.4111 23.9982L54.7379 23.0531L53.7928 22.7264L53.466 23.6715L54.4111 23.9982ZM17.4633 11.7523L53.7752 24.3074L54.1019 23.3623L17.7901 10.8072L17.4633 11.7523ZM17.3176 10.6438L17.1542 11.1164L18.0993 11.4432L18.2627 10.9706L17.3176 10.6438ZM18.0292 11.4727L18.2424 11.0204L17.3378 10.5941L17.1247 11.0463L18.0292 11.4727ZM16.1837 11.3939C16.4825 11.3939 16.8707 11.4794 17.3638 11.7118L17.7901 10.8072C17.2055 10.5317 16.67 10.3939 16.1837 10.3939V11.3939ZM15.4219 11.6198C15.662 11.4656 15.9089 11.3939 16.1837 11.3939V10.3939C15.7154 10.3939 15.2811 10.5217 14.8814 10.7785L15.4219 11.6198ZM2.54134 20.628C3.94891 19.2713 7.13568 15.991 9.44684 13.5997L8.72779 12.9048C6.41104 15.3018 3.23904 18.5667 1.84737 19.908L2.54134 20.628ZM2.53185 20.6372L2.54134 20.628L1.84737 19.908L1.83788 19.9172L2.53185 20.6372ZM1.8156 20.6143L1.81572 20.6144L2.55401 19.9399L2.5539 19.9398L1.8156 20.6143ZM2.42926 20.7393C2.45568 20.7097 2.48651 20.6786 2.52213 20.6461L1.84737 19.908C1.79002 19.9604 1.73503 20.0154 1.68352 20.0731L2.42926 20.7393ZM2.38292 20.7878C2.3989 20.7722 2.41436 20.756 2.42927 20.7393L1.68351 20.0731H1.68351L2.38292 20.7878ZM2 21.8302C2 21.4197 2.1529 21.0474 2.40633 20.7633L1.6601 20.0976C1.24946 20.5579 1 21.165 1 21.8302H2ZM2 44.3962V21.8302H1V44.3962H2ZM3.60377 46C2.71803 46 2 45.282 2 44.3962H1C1 45.8343 2.16575 47 3.60377 47V46ZM52.2075 46H3.60377V47H52.2075V46ZM53.8113 44.3962C53.8113 45.282 53.0933 46 52.2075 46V47C53.6456 47 54.8113 45.8343 54.8113 44.3962H53.8113ZM53.8113 21.8302V44.3962H54.8113V21.8302H53.8113ZM53.3745 20.73C53.6462 21.018 53.8113 21.4037 53.8113 21.8302H54.8113C54.8113 21.1387 54.5418 20.5101 54.1019 20.0439L53.3745 20.73ZM54.1225 19.337L53.3951 20.0232L54.0813 20.7507L54.8087 20.0645L54.1225 19.337ZM55.8113 21.8302C55.8113 20.8735 55.4372 20.0021 54.8293 19.3577L54.1019 20.0439C54.5418 20.5101 54.8113 21.1387 54.8113 21.8302H55.8113ZM55.8113 44.3962V21.8302H54.8113V44.3962H55.8113ZM52.2075 48C54.1979 48 55.8113 46.3865 55.8113 44.3962H54.8113C54.8113 45.8343 53.6456 47 52.2075 47V48ZM3.60377 48H52.2075V47H3.60377V48ZM0 44.3962C0 46.3865 1.61346 48 3.60377 48V47C2.16575 47 1 45.8343 1 44.3962H0ZM0 21.8302V44.3962H1V21.8302H0ZM0.906199 19.4405C0.343117 20.0758 0 20.9141 0 21.8302H1C1 21.1679 1.24727 20.5634 1.65457 20.1038L0.906199 19.4405ZM0.943862 19.3984C0.926208 19.417 0.909355 19.436 0.893316 19.4557L1.66745 20.0887L1.66779 20.0883L0.943862 19.3984ZM0.957054 19.3846L0.94386 19.3984L1.66779 20.0883L1.68098 20.0745L0.957054 19.3846ZM0.98211 19.3592C0.973636 19.3675 0.965282 19.376 0.957053 19.3846L1.68098 20.0745L1.6812 20.0742L0.98211 19.3592ZM1.1667 19.1754C1.09819 19.2383 1.02968 19.3061 0.962875 19.3791L1.70044 20.0544C1.74572 20.0049 1.79353 19.9575 1.8431 19.9119L1.1667 19.1754ZM8.00874 12.2098C5.68894 14.61 2.53603 17.8549 1.15785 19.1837L1.85195 19.9036C3.24594 18.5596 6.41353 15.2993 8.72779 12.9048L8.00874 12.2098ZM9.4348 12.8927L8.71574 12.1978L8.02079 12.9168L8.73984 13.6118L9.4348 12.8927ZM11.1975 11.7855L11.8698 11.088L11.1498 10.394L10.4775 11.0916L11.1975 11.7855ZM9.77054 11.1046L10.4905 11.7985L11.1845 11.0785L10.4645 10.3846L9.77054 11.1046ZM10.4301 9.69982L9.75752 10.3976L10.4775 11.0916L11.1501 10.3938L10.4301 9.69982ZM11.857 10.3812L11.1372 9.68693L10.443 10.4067L11.1627 11.1009L11.857 10.3812Z" fill="#713152"/>
  <circle cx="29.6415" cy="12.283" r="5.20755" fill="#FE2733" stroke="#723052"/>
  <path fill-rule="evenodd" clip-rule="evenodd" d="M25.6859 9.59417C25.6859 9.59417 26.2185 8.74383 26.6774 8.41645C27.7646 7.64075 28.7235 7.46329 29.1353 7.5463C29.7359 7.66741 29.5166 9.02515 28.9444 9.59417C28.3747 10.1608 27.7041 10.5249 26.8478 10.3088C26.2617 10.1608 25.6859 9.59417 25.6859 9.59417Z" fill="white"/>
  <path d="M29.6415 5.63033C29.6415 5.63033 30.0161 1.29071 34.4659 1.29071" stroke="#723052" stroke-width="1.5" stroke-linecap="round" stroke-linejoin="round"/>
</svg>
