<svg width="14" height="15" viewBox="0 0 14 15" fill="none" xmlns="http://www.w3.org/2000/svg">
  <path fill-rule="evenodd" clip-rule="evenodd" d="M7.78039 5.97298H6.49503V4.08177H4.56697V2.82096H6.49503V0.929749H7.78039V2.82096H9.70845V4.08177H7.78039V5.97298ZM2.64534 12.9074C2.64534 12.214 3.21733 11.6466 3.92429 11.6466C4.63124 11.6466 5.20966 12.214 5.20966 12.9074C5.20966 13.6009 4.63124 14.1682 3.92429 14.1682C3.21733 14.1682 2.64534 13.6009 2.64534 12.9074ZM10.3511 11.6466C9.64418 11.6466 9.07219 12.214 9.07219 12.9074C9.07219 13.6009 9.64418 14.1682 10.3511 14.1682C11.0581 14.1682 11.6365 13.6009 11.6365 12.9074C11.6365 12.214 11.0581 11.6466 10.3511 11.6466ZM4.05282 9.52216L4.03354 9.59781C4.03354 9.68606 4.11066 9.75541 4.19421 9.75541H11.6365V11.0162H3.92429C3.21733 11.0162 2.63892 10.4489 2.63892 9.75541C2.63892 9.53477 2.69676 9.32673 2.79959 9.15022L3.66721 7.60573L1.35355 2.82096H0.0681763V1.56015H2.16976L2.77388 2.82096L3.38443 4.08177L4.82404 7.06358L4.90759 7.23379H9.41924L11.1931 4.08177L11.9 2.82096H11.9064L13.0247 3.42615L10.5439 7.84528C10.3254 8.23613 9.90126 8.4946 9.41924 8.4946H4.63124L4.05282 9.52216Z" fill="white"/>
</svg>
