<svg width="18" height="18" viewBox="0 0 18 18" fill="none" xmlns="http://www.w3.org/2000/svg">
  <mask id="mask0" mask-type="alpha" maskUnits="userSpaceOnUse" x="0" y="0" width="18" height="18">
  <path fill-rule="evenodd" clip-rule="evenodd" d="M0 0.246704H17.375V17.7099H0V0.246704Z" fill="white"/>
  </mask>
  <g mask="url(#mask0)">
  <path fill-rule="evenodd" clip-rule="evenodd" d="M14.8055 0.246521H2.56868C1.20195 0.246521 0.0790697 1.33416 0.00620648 2.69033C10.2512 2.39937 15.2346 5.98211 14.4523 9.55351C13.7477 12.7693 10.4973 14.0022 5.21531 14.4071L4.42535 17.7097H14.8055C16.2184 17.7097 17.3744 16.5479 17.3744 15.1278V2.82866C17.3744 1.40863 16.2184 0.246521 14.8055 0.246521ZM13.8339 9.56929C14.2412 7.90121 11.5656 6.35814 7.2804 5.77548L5.72476 12.2799C9.31616 12.4508 13.3958 11.3641 13.8339 9.56929ZM3.38382 17.71H2.56907C1.15621 17.71 -3.05176e-05 16.5479 -3.05176e-05 15.1278V5.71162C2.30559 5.47737 4.45591 5.48206 6.34177 5.6665L3.38382 17.71Z" fill="white"/>
  </g>
</svg>
