<svg width="31" height="24" viewBox="0 0 31 24" fill="none" xmlns="http://www.w3.org/2000/svg">
  <path fill-rule="evenodd" clip-rule="evenodd" d="M7.58493 11.3017C5.86399 12.3021 5.65951 12.2197 5.09089 10.2989C4.65694 8.8325 4.40067 8.71374 2.793 9.44205C2.77806 9.15595 2.76522 8.87841 2.75266 8.60677C2.72585 8.02701 2.70028 7.47416 2.65811 6.92255C2.42796 3.92068 3.14138 2.84229 6.31415 1.65577C11.953 -0.45271 17.7237 -0.500127 23.4821 1.24387C24.5045 1.55341 25.4647 2.11243 26.3939 2.65484C27.3593 3.21852 28.1387 4.03635 28.1124 5.21112C28.0727 6.96309 27.9182 8.7144 27.7446 10.4595C27.7144 10.7626 27.3884 11.2055 27.1235 11.2665C26.8979 11.3183 26.5045 10.9618 26.2865 10.7032C24.7439 8.87238 23.5069 9.01153 22.3978 11.1457C22.0069 11.8975 21.6002 12.6464 21.1311 13.3521C20.649 14.0771 20.0366 14.0866 19.4935 13.4055C19.2114 13.0519 18.9618 12.6734 18.7121 12.2949C18.5954 12.1179 18.4787 11.941 18.3587 11.7666C17.3769 10.3387 16.3016 10.3848 15.4974 11.933C15.2542 12.401 15.0388 12.8836 14.8235 13.366C14.5425 13.9956 14.2617 14.6247 13.9197 15.2204C13.6566 15.6782 13.0657 16.2612 12.6489 16.2425C12.2091 16.2228 11.6425 15.6277 11.4099 15.1522C11.1496 14.6205 10.964 14.0545 10.7782 13.4878C10.6304 13.0371 10.4825 12.5859 10.2967 12.1512C9.67024 10.6846 8.97461 10.4939 7.58493 11.3017ZM28.7622 14.5914C28.8198 14.4661 28.8773 14.3408 28.9202 14.2169C29.0423 14.2919 29.1761 14.3585 29.31 14.425C29.5994 14.5689 29.8888 14.7128 30.0583 14.9423C31.491 16.8837 31.2929 18.6009 29.4366 20.1887C27.4909 21.8527 25.1081 22.6747 22.6515 23.2014C18.9405 23.9969 15.1716 24.2537 11.3919 23.717C7.93337 23.2258 4.51176 22.5491 1.677 20.3385C-0.77357 18.4276 -0.536664 15.5348 2.37623 13.873C2.40573 14.0426 2.44389 14.1987 2.47958 14.3448C2.54989 14.6325 2.61064 14.881 2.57688 15.1165C2.20509 17.7011 3.65782 19.2457 5.83118 20.0367C12.4749 22.4547 19.1465 22.5657 25.7121 19.6922C27.5499 18.8879 28.7452 17.5779 28.5374 15.3908C28.513 15.1335 28.6376 14.8624 28.7622 14.5914Z" fill="#F56A76"/>
</svg>
