<svg width="20" height="20" viewBox="0 0 20 20" fill="none" xmlns="http://www.w3.org/2000/svg">
  <path fill-rule="evenodd" clip-rule="evenodd" d="M0 0.5V2.45H1.95L5.45513 9.84538L4.13888 12.2341C3.98775 12.5169 3.9 12.8338 3.9 13.175C3.9 14.2524 4.77262 15.125 5.85 15.125H17.55V13.175H6.26438C6.12787 13.175 6.02063 13.0677 6.02063 12.9313C6.02063 12.8874 6.03038 12.8484 6.04988 12.8142L6.9225 11.225H14.1862C14.9175 11.225 15.5561 10.8204 15.8925 10.2207L19.3781 3.893C19.4561 3.7565 19.5 3.59562 19.5 3.425C19.5 2.88387 19.0612 2.45 18.525 2.45H4.10962L3.18337 0.5H0ZM5.85 16.1C4.77262 16.1 3.90975 16.9726 3.90975 18.05C3.90975 19.1274 4.77262 20 5.85 20C6.92737 20 7.8 19.1274 7.8 18.05C7.8 16.9726 6.92737 16.1 5.85 16.1ZM13.6597 18.05C13.6597 16.9726 14.5226 16.1 15.6 16.1C16.6774 16.1 17.55 16.9726 17.55 18.05C17.55 19.1274 16.6774 20 15.6 20C14.5226 20 13.6597 19.1274 13.6597 18.05Z" fill="#50576B"/>
</svg>
